# xmcd
#
# Track frame offsets:
# 150
# 18817
# 33595
# 62067
# 80230
# 100454
# 116830
# 141852
# 162039
# 185423
# 206984
# 230791
#
# Disc length: 3331 seconds
#
# Revision: 0
# Processed by: cddbd v1.4PL0 Copyright (c) Steve Scherf et al.
# Submitted via: Axialis_AX_CDPlayer 2.6
#
DISCID=ae0d010c
DTITLE=Bonnie Raitt - Silver Lining
DYEAR=1900
DGENRE=
TTITLE0=Fools Game
TTITLE1=I Can 't Help You Now
TTITLE2=Silver Lining
TTITLE3=Time Of Our Lives
TTITLE4=Gnawin' On It
TTITLE5=Monkey Busines
TTITLE6=Wherever You May Be
TTITLE7=Valley Of Pain
TTITLE8=Hear Me Lord
TTITLE9=No Gettin'  Over You
TTITLE10=Back Around
TTITLE11=Wounded Heart
EXTD=
EXTT0=
EXTT1=
EXTT2=
EXTT3=
EXTT4=
EXTT5=
EXTT6=
EXTT7=
EXTT8=
EXTT9=
EXTT10=
EXTT11=
PLAYORDER=
